<svg height='300px' width='300px'  fill="#000000" xmlns="http://www.w3.org/2000/svg" xmlns:xlink="http://www.w3.org/1999/xlink" version="1.1" x="0px" y="0px" viewBox="0 0 512 512" style="enable-background:new 0 0 512 512;" xml:space="preserve"><title>Contact files book</title><g><path d="M62,250c-3.3,0-6,2.7-6,6s2.7,6,6,6h37.9v-12H62z"></path><path d="M62,195.9c-3.3,0-6,2.7-6,6c0,3.3,2.7,6,6,6h37.9v-12H62z"></path><path d="M62,304.1c-3.3,0-6,2.7-6,6s2.7,6,6,6h37.9v-12H62z"></path><path d="M62,358.3c-3.3,0-6,2.7-6,6s2.7,6,6,6h37.9v-12H62z"></path><path d="M448.5,252.1h-10.2v55.7h10.2c4.2,0,7.5-3.4,7.5-7.5v-40.6C456,255.5,452.6,252.1,448.5,252.1z"></path><path d="M448.5,335.6h-10.2v55.7h10.2c4.2,0,7.5-3.4,7.5-7.5v-40.6C456,338.9,452.6,335.6,448.5,335.6z"></path><path d="M392.2,45.4H133.9c-18.8,0-34,15.2-34,34v62.3h25.9c3.3,0,6,2.7,6,6c0,3.3-2.7,6-6,6H99.9v-12H62c-3.3,0-6,2.7-6,6   c0,3.3,2.7,6,6,6h37.9v42.1h25.9c3.3,0,6,2.7,6,6c0,3.3-2.7,6-6,6H99.9V250h25.9c3.3,0,6,2.7,6,6s-2.7,6-6,6H99.9v42.1h25.9   c3.3,0,6,2.7,6,6s-2.7,6-6,6H99.9v42.1h25.9c3.3,0,6,2.7,6,6c0,3.3-2.7,6-6,6H99.9v62.3c0,18.8,15.2,34,34,34h258.4   c18.8,0,34-15.2,34-34V79.4C426.2,60.7,411,45.5,392.2,45.4z M289.4,382.8H181.8c-3.3,0-6-2.7-6-6s2.7-6,6-6h107.6c3.3,0,6,2.7,6,6   S292.7,382.8,289.4,382.8z M344.2,382.8h-25c-3.3,0-6-2.7-6-6s2.7-6,6-6h25c3.3,0,6,2.7,6,6S347.6,382.8,344.2,382.8z M350.2,200.8   c0,3.3-2.7,6-6,6H181.8c-3.3,0-6-2.7-6-6v-81.2c0-3.3,2.7-6,6-6h162.4c3.3,0,6,2.7,6,6V200.8z"></path><rect x="187.8" y="125.6" width="150.4" height="69.2"></rect><path d="M448.5,168.4h-10.2v55.7h10.2c4.2,0,7.5-3.4,7.5-7.5V176C456,171.8,452.6,168.4,448.5,168.4z"></path></g></svg>