<svg height='300px' width='300px'  fill="#000000" xmlns="http://www.w3.org/2000/svg" xmlns:xlink="http://www.w3.org/1999/xlink" version="1.1" x="0px" y="0px" viewBox="0 0 64 64" style="enable-background:new 0 0 64 64;" xml:space="preserve"><g><path d="M16.0599976,14.75c-0.4099731,0-0.75-0.3400269-0.75-0.75c0-0.4100342,0.3400269-0.75,0.75-0.75   c2.6900024,0,4.8800049-2.1900024,4.8800049-4.8699951C20.9400024,5.6900024,18.75,3.5,16.0599976,3.5   s-4.8699951,2.1900024-4.8699951,4.8800049V55.25c0,1.9199829-0.6900024,3.789978-1.8900146,5.25h37.8900146   c1.6500244,0,3-1.3500366,3-3V14.75H16.0599976z M16.0599976,19.25h22.8099976c0.4199829,0,0.75,0.3399658,0.75,0.75   c0,0.4099731-0.3300171,0.75-0.75,0.75H16.0599976c-0.4099731,0-0.75-0.3400269-0.75-0.75   C15.3099976,19.5899658,15.6500244,19.25,16.0599976,19.25z M18.5,25.25c1.7600098,0,3.1900024,1.4299927,3.1900024,3.1900024   c0,1.75-1.4299927,3.1799927-3.1900024,3.1799927s-3.1900024-1.4299927-3.1900024-3.1799927   C15.3099976,26.6799927,16.7399902,25.25,18.5,25.25z M21.5,52.8800049c0.289978,0.289978,0.289978,0.7600098,0,1.0599976   c-0.1500244,0.1399536-0.3400269,0.2199707-0.5300293,0.2199707c-0.1999512,0-0.3899536-0.0800171-0.5299683-0.2199707L18.5,52   l-1.9400024,1.9400024c-0.1400146,0.1399536-0.3300171,0.2199707-0.5299683,0.2199707   c-0.1900024,0-0.3800049-0.0800171-0.5300293-0.2199707c-0.289978-0.2999878-0.289978-0.7700195,0-1.0599976l1.9400024-1.9400024   L15.5,49c-0.289978-0.2900391-0.289978-0.7700195,0-1.0599976c0.2999878-0.2900391,0.7700195-0.2900391,1.0599976,0   L18.5,49.8800049l1.9400024-1.9400024c0.289978-0.2900391,0.7600098-0.2900391,1.0599976,0   c0.289978,0.289978,0.289978,0.7699585,0,1.0599976l-1.9400024,1.9400024L21.5,52.8800049z M22.7999878,37.0599976   l-4.8900146,6.1799927c-0.1399536,0.1799927-0.3599854,0.289978-0.5799561,0.289978h-0.0499878   c-0.2400513-0.0199585-0.4700317-0.1499634-0.5900269-0.3599854l-1.2700195-2.0700073   c-0.2099609-0.3599854-0.0999756-0.8200073,0.25-1.0299683c0.3600464-0.2200317,0.8200073-0.1100464,1.0300293,0.2399902   l0.7099609,1.1599731l4.210022-5.3399658c0.2600098-0.3200073,0.7299805-0.3800049,1.0499878-0.1199951   C23,36.2699585,23.0499878,36.7399902,22.7999878,37.0599976z M27.6900024,51.6900024h-2.2999878   c-0.4200439,0-0.75-0.3400269-0.75-0.75c0-0.4200439,0.3299561-0.75,0.75-0.75h2.2999878c0.4099731,0,0.75,0.3299561,0.75,0.75   C28.4400024,51.3499756,28.0999756,51.6900024,27.6900024,51.6900024z M27.6900024,40.4400024h-2.2999878   c-0.4200439,0-0.75-0.3400269-0.75-0.75c0-0.4200439,0.3299561-0.75,0.75-0.75h2.2999878c0.4099731,0,0.75,0.3299561,0.75,0.75   C28.4400024,40.0999756,28.0999756,40.4400024,27.6900024,40.4400024z M27.6900024,29.1900024h-2.2999878   c-0.4200439,0-0.75-0.3400269-0.75-0.75c0-0.4200439,0.3299561-0.75,0.75-0.75h2.2999878c0.4099731,0,0.75,0.3299561,0.75,0.75   C28.4400024,28.8499756,28.0999756,29.1900024,27.6900024,29.1900024z M45.7399902,51.6900024H30.6900024   c-0.4199829,0-0.75-0.3400269-0.75-0.75c0-0.4200439,0.3300171-0.75,0.75-0.75h15.0499878c0.4100342,0,0.75,0.3299561,0.75,0.75   C46.4899902,51.3499756,46.1500244,51.6900024,45.7399902,51.6900024z M45.7399902,40.4400024H30.6900024   c-0.4199829,0-0.75-0.3400269-0.75-0.75c0-0.4200439,0.3300171-0.75,0.75-0.75h15.0499878c0.4100342,0,0.75,0.3299561,0.75,0.75   C46.4899902,40.0999756,46.1500244,40.4400024,45.7399902,40.4400024z M45.7399902,29.1900024H30.6900024   c-0.4199829,0-0.75-0.3400269-0.75-0.75c0-0.4200439,0.3300171-0.75,0.75-0.75h15.0499878c0.4100342,0,0.75,0.3299561,0.75,0.75   C46.4899902,28.8499756,46.1500244,29.1900024,45.7399902,29.1900024z M50.9400024,3.5H20.1699829   C20.210022,3.539978,20.25,3.5799561,20.2999878,3.6199951c0.1099854,0.0999756,0.2200317,0.2000122,0.3200073,0.2999878   c0.0599976,0.0599976,0.1099854,0.1300049,0.1699829,0.1900024c0.0900269,0.0999756,0.1700439,0.2000122,0.2600098,0.2999878   c0.0499878,0.0700073,0.1000366,0.1400146,0.1600342,0.210022c0.0700073,0.1099854,0.1499634,0.2099609,0.2099609,0.3200073   c0.0499878,0.0799561,0.1000366,0.1599731,0.1500244,0.2299805C21.6300049,5.2799683,21.6900024,5.3999634,21.75,5.5100098   c0.039978,0.0799561,0.0800171,0.1599731,0.1199951,0.25C21.9199829,5.8800049,21.9699707,6,22.0200195,6.1199951   c0.0299683,0.0800171,0.0599976,0.1699829,0.0899658,0.25C22.1500244,6.5,22.1900024,6.6300049,22.2199707,6.7699585   c0.0300293,0.0800171,0.0500488,0.1600342,0.0700073,0.25c0.0300293,0.1400146,0.0500488,0.2900391,0.0800171,0.4500122   c0.0100098,0.0700073,0.0200195,0.1400146,0.0300293,0.2200317c0.0199585,0.2199707,0.039978,0.4500122,0.039978,0.6900024   c0,0.2299805-0.0200195,0.4599609-0.039978,0.6799927c-0.0100098,0.0800171-0.0200195,0.1499634-0.0300293,0.2199707   c-0.0299683,0.1600342-0.0499878,0.3099976-0.0800171,0.4500122c-0.0199585,0.0900269-0.039978,0.1699829-0.0700073,0.25   c-0.0299683,0.1400146-0.0699463,0.2700195-0.1099854,0.4000244c-0.0299683,0.0799561-0.0599976,0.1699829-0.0899658,0.25   c-0.0500488,0.1199951-0.1000366,0.2399902-0.1500244,0.3599854c-0.039978,0.0899658-0.0800171,0.1699829-0.1199951,0.25   c-0.0599976,0.1099854-0.1199951,0.2299805-0.1799927,0.3399658c-0.0499878,0.0700073-0.1000366,0.1500244-0.1500244,0.2300415   c-0.0599976,0.1099854-0.1399536,0.2099609-0.2099609,0.3200073c-0.0599976,0.0700073-0.1100464,0.1399536-0.1600342,0.2099609   c-0.0899658,0.1000366-0.1699829,0.2000122-0.2600098,0.3000488c-0.0599976,0.0599976-0.1099854,0.1299438-0.1699829,0.1899414   c-0.0999756,0.1000366-0.210022,0.2000122-0.3200073,0.3000488C20.25,13.1699829,20.210022,13.2099609,20.1699829,13.25h30.7700195   c2.6900024,0,4.8699951-2.1900024,4.8699951-4.8699951C55.8099976,5.6900024,53.6300049,3.5,50.9400024,3.5z"></path></g></svg>