<svg height='300px' width='300px'  fill="#000000" xmlns="http://www.w3.org/2000/svg" xmlns:xlink="http://www.w3.org/1999/xlink" version="1.1" x="0px" y="0px" viewBox="0 0 60 60" enable-background="new 0 0 60 60" xml:space="preserve"><g><path d="M51.06,22.71h-4.12v10.74c0,3.77-3.06,6.84-6.83,6.84H28.25v0.32c0,2.17,1.77,3.94,3.94,3.94h10.23l6.14,6.14   c0.19,0.19,0.45,0.29,0.71,0.29c0.13,0,0.26-0.02,0.38-0.08c0.37-0.15,0.62-0.52,0.62-0.92v-5.43h0.8c2.17,0,3.94-1.77,3.94-3.94   V26.65C55,24.48,53.23,22.71,51.06,22.71z"></path><path d="M40.11,9.01H9.84C7.17,9.01,5,11.18,5,13.85v19.6c0,2.67,2.17,4.84,4.84,4.84h1.34v7.38c0,0.4,0.24,0.77,0.61,0.92   c0.13,0.05,0.26,0.08,0.39,0.08c0.26,0,0.51-0.1,0.7-0.3l8.09-8.08h19.14c2.66,0,4.83-2.17,4.83-4.84v-19.6   C44.94,11.18,42.77,9.01,40.11,9.01z M14.87,26.82c-1.75,0-3.18-1.42-3.18-3.17s1.43-3.17,3.18-3.17s3.17,1.42,3.17,3.17   S16.62,26.82,14.87,26.82z M24.97,26.82c-1.75,0-3.17-1.42-3.17-3.17s1.42-3.17,3.17-3.17s3.18,1.42,3.18,3.17   S26.72,26.82,24.97,26.82z M35.07,26.82c-1.75,0-3.17-1.42-3.17-3.17s1.42-3.17,3.17-3.17s3.18,1.42,3.18,3.17   S36.82,26.82,35.07,26.82z"></path></g></svg>