<svg height='300px' width='300px'  fill="#00000080" xmlns="http://www.w3.org/2000/svg" xmlns:xlink="http://www.w3.org/1999/xlink" version="1.1" x="0px" y="0px" viewBox="0 0 100 100" enable-background="new 0 0 100 100" xml:space="preserve"><path d="M79.508,47.574c-0.419-1.323-0.948-2.261-1.66-2.92c-0.362-0.31-0.759-0.578-1.199-0.775  c-0.212-0.088-0.432-0.168-0.671-0.229c-0.017-0.005-0.033-0.011-0.05-0.016c-0.291-0.072-0.604-0.123-0.938-0.159  c-0.025-0.002-0.049-0.006-0.074-0.008c-0.202-0.02-0.427-0.023-0.646-0.03h-1.927v-3.453h-0.085  c0.034-3.551,0.203-7.065-0.054-10.547c-0.69-9.334-7.867-17.439-17.005-19.512c-1.239-0.281-2.503-0.451-3.755-0.672  c-0.96,0-1.921,0-2.881,0c-0.651,0.107-1.301,0.224-1.955,0.319C35.879,11.138,27.649,20.606,27.62,31.421  c-0.006,2.394-0.004,4.787-0.003,7.181h-0.002v4.835h-1.876c-0.222,0.008-0.451,0.011-0.655,0.031  c-0.022,0.001-0.043,0.005-0.064,0.006c-0.337,0.036-0.653,0.088-0.947,0.161c-0.011,0.003-0.022,0.007-0.033,0.01  c-0.245,0.062-0.47,0.145-0.687,0.235c-0.442,0.198-0.841,0.468-1.204,0.78c-0.71,0.659-1.237,1.596-1.653,2.914  c-0.003,0.01-0.014,0.019-0.021,0.028c-0.046,0.273-0.084,0.549-0.084,0.835v37.309c0,0.328,0.036,0.646,0.096,0.957  c0.084,0.252,0.165,0.506,0.261,0.753c0.616,1.586,1.759,2.598,3.381,3.086c0.104,0.031,0.206,0.071,0.309,0.108  c0.309,0.06,0.626,0.096,0.953,0.096h49.223c0.333,0,0.656-0.036,0.971-0.098c0.299-0.099,0.598-0.196,0.887-0.318  c1.505-0.64,2.471-1.763,2.934-3.328c0.032-0.107,0.074-0.21,0.113-0.314c0.057-0.3,0.092-0.608,0.093-0.925  C79.607,73.068,79.508,60.267,79.508,47.574z M53.311,68.963c-0.449,0.327-0.576,0.659-0.573,1.182  c0.014,2.381,0.014,4.762,0.012,7.143c0,0.004,0.001,0.008,0.001,0.012c0,1.519-1.231,2.75-2.75,2.75s-2.75-1.231-2.75-2.75  c0-0.005,0.001-0.01,0.001-0.016c-0.002-2.387-0.002-4.774,0.008-7.161c0.002-0.486-0.103-0.81-0.53-1.125  c-2.164-1.591-2.869-4.309-1.792-6.694c1.051-2.33,3.612-3.689,6.03-3.202c2.682,0.541,4.558,2.71,4.583,5.396  C55.568,66.346,54.811,67.872,53.311,68.963z M62.852,39.984L62.852,39.984l0,0.104c0,0.017,0,0.034,0,0.051c0,0.306,0,0.612,0,0.93  v2.368H37.104v-2.563c0.041-0.114,0.045-0.257,0.045-0.416c-0.009-1.947-0.027-3.894,0.001-5.84c0.024-1.677-0.051-3.375,0.19-5.024  c0.956-6.532,6.943-11.195,13.659-10.748c6.434,0.428,11.706,5.934,11.832,12.414C62.887,34.167,62.85,37.076,62.852,39.984z"></path></svg>